<?xml version="1.0" encoding="UTF-8"?>
<!DOCTYPE svg PUBLIC "-//W3C//DTD SVG 1.1//EN" "http://www.w3.org/Graphics/SVG/1.1/DTD/svg11.dtd">
<!-- Creator: CorelDRAW 2019 (64-Bit) -->
<svg xmlns="http://www.w3.org/2000/svg" xml:space="preserve" width="1.95in" height="0.480441in" version="1.1" style="shape-rendering:geometricPrecision; text-rendering:geometricPrecision; image-rendering:optimizeQuality; fill-rule:evenodd; clip-rule:evenodd"
viewBox="0 0 2193.75 540.5"
 xmlns:xlink="http://www.w3.org/1999/xlink"
 xmlns:xodm="http://www.corel.com/coreldraw/odm/2003">
 <defs>
  <style type="text/css">
   <![CDATA[
    .fil0 {fill:#211D21}
   ]]>
  </style>
 </defs>
 <g id="Layer_x0020_1">
  <metadata id="CorelCorpID_0Corel-Layer"/>
  <path class="fil0" d="M-0 223.6c0,57.22 45.4,82.01 85.5,109.5 132.65,90.91 429.15,150.74 590.48,170.77l175.29 15.96c57.95,2.49 117.26,11.87 176.12,15.14 180.37,10.02 299.25,5.87 479.86,-7.86 132.16,-10.05 332.48,-48.77 455.03,-96.22l56.81 -21.95c54.1,-34.78 170.98,-76.38 174.66,-137.37l0 -6.2c-1.29,-19.54 -14.28,-41.02 -44.42,-64.84 -95.04,-75.11 -411.73,-131.59 -525.58,-134.42 -46.84,-1.17 -94.82,-11.79 -142.48,-11.28 -80.96,0.88 -176.67,-15.33 -256.06,-8.49 -13.81,1.19 -18.04,-2.74 -36.47,-2.74 -190.17,-13.49 -806.46,11.25 11.25,11.25 81.4,0 197.02,1.69 279.13,13.37l163.52 15.38c18.47,-0.1 6.24,-4.69 28.81,2.03 60.48,18.02 130.81,17.99 191.37,30.14 36.82,7.39 81.45,16.66 118.52,27.74 56.45,16.86 105.09,34.48 151.76,65.74 44.97,30.12 36.9,71.07 -1.89,101.82 -8.4,6.65 -15.49,11.4 -22.52,18.73 -21.25,22.18 -57.22,30.19 -83.7,43.8 -84.95,43.66 -230.75,81.76 -324.23,99.57l-30.14 6.73c-33.66,0.95 -78.95,5.23 -111.43,12.91 -23.22,5.49 -48.04,6.97 -74.09,8.42 -77.74,4.31 -150.76,11.24 -228.86,11.14 -37.66,-0.04 -85.34,-1.05 -121.15,2.85 -14.64,1.59 -22.36,-2.37 -38.95,-4.04 -14.33,-1.45 -14.78,1.64 -34.83,1.41 -18.44,-0.21 -18.64,-3.54 -37.45,-4.1l-82.63 -3.63c-31.97,0.27 -45.2,-6.79 -75,-7.5 -75.57,-1.79 -154.65,-14.77 -228.38,-26.88l-98.9 -17.09c-63.13,-10.31 -186.48,-34.22 -243.21,-53.04 -23.47,-7.79 -36.37,-16.73 -62.46,-23.78 -40.85,-11.05 -80.6,-30.81 -116.93,-51.82 -29.41,-17 -78.87,-54.66 -78.87,-93.63 0,-40.46 42.05,-71.98 70.02,-87.48 18.78,-10.41 34.55,-16.49 53.66,-25.08 19.1,-8.58 35.55,-17.06 58.7,-23.8 129.44,-37.7 269.23,-64.25 406.5,-73.51 101.41,-6.84 201.77,-5.7 303.61,-5.7 27.84,0 53.71,0.27 76.03,-2.72 13.44,-1.8 27.82,3.48 40.49,1.29 13.92,-2.4 13.88,-6.59 34.66,-6.59 -4.32,-6.22 -0.66,-7.46 -10.76,-7.5l-0.49 0 -214.41 6.44c-45.12,1.28 -87.9,-8.71 -133.02,-2.67 -19.68,2.64 -55.29,2.75 -73.75,3 -55.37,0.76 -135.15,6.96 -193.4,15.9 -131.1,20.12 -281.17,49.78 -389.4,120.6 -20.95,13.71 -65.93,50.65 -65.93,80.32z"/>
 </g>
</svg>
