<svg id="Layer_x0020_1" xmlns="http://www.w3.org/2000/svg" width="32.381" height="30.631" viewBox="0 0 32.381 30.631">
  <path id="Path_22" data-name="Path 22" d="M23.2,29.18c-.132.247.232.1-.351.308a26.5,26.5,0,0,1-3.4,0c-1.157-.074-1.58-.342-1.814-1.474-.433-2.113.919-4.517-.074-5.88-1.855-.332-3.539.03-3.8-2.061-.351-2.761,1.506-2.092,3.617-2.217.1-3.626-.386-6.342,2.434-7.779a7.412,7.412,0,0,1,4.391-.6c1.177.206,2.906,1.207,2.516,2.521-.525,1.762-4.372.674-3.6,4.09.208.921.622.863,1.443,1.051a3.077,3.077,0,0,1,2.391,2.789c-.015,1.636-1.922,1.409-3.242,1.933.017,1.136,1.946,6.979-.509,7.315ZM4.911,19.054c.217,4.012,1.647,7.5,4.649,9.9,6.272,5.007,14.905,6.6,20.924.546,5.843-5.874,6.188-14.006-.284-20.023C23.577,3.316,16.719,3.925,9.662,9.257a13.893,13.893,0,0,0-3.383,3.914c-1.346,2.219-1.535,2.8-1.37,5.88Z" transform="translate(-3.804 -3.956)" fill="#fff" fill-rule="evenodd"/>
  <path id="Path_23" data-name="Path 23" d="M1.1,15.078C.931,12,1.117,11.415,2.465,9.2A13.893,13.893,0,0,1,5.849,5.284C12.906-.048,19.761-.657,26.387,5.5c6.472,6.017,6.127,14.149.284,20.023-6.021,6.049-14.654,4.461-20.924-.546-3-2.395-4.432-5.885-4.649-9.9ZM14.609.13a23.29,23.29,0,0,0-8.323,3.4A22.711,22.711,0,0,0,4.058,5.247C1,7.744.84,10.16.218,13.225-2.368,25.967,17.717,37.754,28.4,25.363c2-2.317,4.482-7.248,3.875-11.611-.657-4.716-3.626-7.705-5.976-9.777S19.2-.655,14.609.127Z" transform="translate(0.01 0.017)" fill="#020202" fill-rule="evenodd"/>
  <path id="Path_24" data-name="Path 24" d="M51.035,43.913c-1.229-.954.306-4.549-.1-6.08-.583-2.226-4.43.041-4.255-2.748,1.359-.73,3.277.457,3.737-1.036.41-1.329.366-2.865.657-4.311.782-3.89,5.523-3.255,6.721-2.716C57.42,29,53,27.781,53.365,31.6c.3,3.2,3.13,2.027,4.092,2.644.5.323,1.812,1.548-.414,1.565-3.581.028-3.021,1.948-2.54,4.324a10.8,10.8,0,0,1,.238,2.833l-.375.412a.851.851,0,0,1-.4.186A5.386,5.386,0,0,1,51.035,43.913Zm4.716-6.439c1.32-.525,3.227-.3,3.242-1.933A3.077,3.077,0,0,0,56.6,32.751c-.819-.189-1.235-.13-1.444-1.051-.769-3.418,3.08-2.328,3.6-4.09.39-1.313-1.339-2.315-2.516-2.521a7.412,7.412,0,0,0-4.391.6c-2.82,1.437-2.332,4.151-2.434,7.779-2.113.126-3.969-.546-3.617,2.217.264,2.092,1.949,1.73,3.8,2.061.993,1.363-.36,3.767.074,5.88.232,1.134.657,1.4,1.814,1.474,7.272.464,4.343-1.736,4.257-7.623Z" transform="translate(-35.841 -19.567)" fill="#020202" fill-rule="evenodd"/>
  <path id="Path_25" data-name="Path 25" d="M56.386,49.782c.2-.15-.206-.035.418-.232.143-.046.308-.046.477-.1a.9.9,0,0,0,.4-.186l.375-.412a10.789,10.789,0,0,0-.238-2.833c-.481-2.375-1.043-4.294,2.54-4.324,2.226-.017.915-1.244.414-1.565-.962-.618-3.791.553-4.092-2.644-.36-3.819,4.055-2.6,4.435-4.58-1.2-.54-5.939-1.173-6.721,2.716-.29,1.446-.247,2.98-.657,4.311-.459,1.491-2.378.306-3.737,1.036-.176,2.792,3.672.525,4.255,2.748.4,1.53-1.134,5.126.1,6.08.769.26,1.259-.024,2.037-.022Z" transform="translate(-39.155 -25.457)" fill="#fff" fill-rule="evenodd"/>
</svg>
