<svg id="Layer_x0020_1" xmlns="http://www.w3.org/2000/svg" width="24.713" height="23.856" viewBox="0 0 24.713 23.856">
  <path id="Path_62" data-name="Path 62" d="M2.573,11.984c.241-1.678,9.614-10.066,9.712-10.066l9.742,9.893L2.58,11.984ZM0,13.2c3.6.752,8.674.023,12.774.113,3.769.083,9.968.955,11.939-.677-.557-4.01-3.671-1.79-4.123-6.884-.158-1.768.233-1.843-.933-3-1.2.8-.948,1.67-1.49,2.437C17.626,4.055,13.729.5,12.774,0c-.933-.083-8.125,7.651-9.735,9.291C1.475,10.893.233,10.825,0,13.2Z" transform="translate(0 0.001)" fill="#040404" fill-rule="evenodd"/>
  <path id="Path_63" data-name="Path 63" d="M11.885,22.2c.745-1.708.5-1.294,2.829-1.332L14.752,26l.4,2.174,3.1.2,3.852-.188c.73-1.888.406-6.643.444-9.238-1.9.083-2.167.542-2.016,2.5.135,1.806.181,3.6.226,5.424l-1.2-.143-2.287.15c-.053-.12-.15-.429-.166-.369s-.12-.278-.143-.384a12.507,12.507,0,0,1-.158-1.392c-.045-.918,0-2-.008-2.934-.429-3.265-3.867-2.61-6.1-1.753l-.459,4.9a7.431,7.431,0,0,1,0,.82,3.391,3.391,0,0,1-.346,1.181l-4.153-.105c.579-1.5.414-5.838.5-7.824-2.355-.053-1.926.73-1.866,2.693a44.524,44.524,0,0,0,.248,6.319l1.407.361,6.161.15.083-4.837c-.075-1.377.143.369-.113-.835l-.308-.662Z" transform="translate(-1.067 -4.693)" fill="#040404" fill-rule="evenodd"/>
</svg>
