<svg xmlns="http://www.w3.org/2000/svg" width="995" height="4" viewBox="0 0 995 4"><g><g><path fill="#020202" d="M.378 1.292l120.708.954c41.198.409 82.072.4 122.878.045 83.468-.727 166.476.63 249.772.606 41.733-.011 82.817.236 124.847.135 42.078-.1 84.644-.064 126.741.02C796.351 3.154 956.957 4.85 995 2.238c-5.086-1.487-16.082-.842-26.532-.766-81.268.578-137.057.395-219.358.2-124.857-.292-249.733.449-374.552-.408-42.346-.29-82.072-.558-124.876-.325-41.313.224-82.187.555-123.595.18C85.767.754 42.332.178 2.042.335l-1.664.963z"/></g></g></svg>