<svg xmlns="http://www.w3.org/2000/svg" width="319.508" height="26.873" viewBox="0 0 319.508 26.873">
  <path id="Path_58" data-name="Path 58" d="M34.688,26.219c1.056.156,121.42.156,139.769.162l46.4-.019c18.224.084,45.944.551,69.5.421,4.9.045,19.488.272,22.584-.253,5.612-.946,4.453-2.411,4.815-4.447a43.183,43.183,0,0,0,.725-5.62c.155-3.682.124-7.545,1.025-11.2a14,14,0,0,0-.062-2.081l-.621-1.854a4.874,4.874,0,0,0-.476-.311c-2.206-1-10.375-.92-14.662-.959-16.412-.143-24.168.006-39.731.071-6.8.032-13.617.019-20.42.032C188.985.265,134.042.122,79.411.122L18.141.019C10.075.006,4.017-.221,4.1,1.594A24.278,24.278,0,0,0,3.168,5.25C2.475,8.53-.684,20.567.145,23.393c1.067,3.63,9.288,2.748,19.1,2.748,4.577,0,11.266.2,15.439.071ZM3.935,6.76c.787-.357.828-3.922.87-4.648a1.543,1.543,0,0,1,.652-.992C6,.673,6.088.6,7.921.459c3.924-.3,24.4-.071,29.9-.065L160.364.414q40.85.01,81.689-.026c13.575,0,26.57-.013,40.083-.136,4.318-.039,25.6.013,29.853.214,3.034.149,5.3.369,6.451.914l.414,3.9c-.942,1.245-.538,4.116-.611,5.536L317.2,21.973c-.135,1.342,1.067,3.747-5.364,4.356-6.337.6-77.008-.324-95.73-.285l-53.855.039c-1.543-.149-78.417-.091-91.381-.13-4.049-.013-28.289-.1-30.226-.013-4.111.156-10.717-.006-15.066-.032C-.974,25.765-.259,28.268,2.412,13.722a35.128,35.128,0,0,1,.756-3.474c.3-1.044,1.191-2.489.787-3.494Z" transform="translate(-0.007 0.002)" fill="#848484" fill-rule="evenodd"/>
</svg>
