<?xml version="1.0" encoding="UTF-8"?>
<!DOCTYPE svg PUBLIC "-//W3C//DTD SVG 1.1//EN" "http://www.w3.org/Graphics/SVG/1.1/DTD/svg11.dtd">
<!-- Creator: CorelDRAW 2019 (64-Bit) -->
<svg xmlns="http://www.w3.org/2000/svg" xml:space="preserve" width="0.8in" height="0.279925in" version="1.1" style="shape-rendering:geometricPrecision; text-rendering:geometricPrecision; image-rendering:optimizeQuality; fill-rule:evenodd; clip-rule:evenodd"
viewBox="0 0 800.05 279.94"
 xmlns:xlink="http://www.w3.org/1999/xlink"
 xmlns:xodm="http://www.corel.com/coreldraw/odm/2003">
 <defs>
  <style type="text/css">
   <![CDATA[
    .fil0 {fill:#848484}
   ]]>
  </style>
 </defs>
 <g id="Layer_x0020_1">
  <metadata id="CorelCorpID_0Corel-Layer"/>
  <path id="Path_58" class="fil0" d="M86.84 273.15c2.65,1.63 304.03,1.63 349.98,1.69l116.18 -0.2c45.63,0.87 115.04,5.74 174.02,4.39 12.27,0.47 48.8,2.83 56.55,-2.63 14.05,-9.85 11.15,-25.12 12.06,-46.33 0.9,-19.27 1.52,-38.94 1.82,-58.54 0.39,-38.36 0.31,-78.6 2.56,-116.67 0.02,-2.14 0.04,-4.37 0.04,-6.52 0,-5.06 -0.06,-10.15 -0.19,-15.17l-1.56 -19.31c-0.38,-1.17 -0.78,-2.26 -1.19,-3.24 -5.53,-10.42 -25.98,-9.58 -36.71,-9.99 -41.09,-1.49 -60.52,0.06 -99.49,0.74 -17.02,0.33 -34.1,0.2 -51.13,0.33 -136.59,1.08 -274.17,-0.41 -410.96,-0.41l-153.41 -1.07c-20.2,-0.14 -35.37,-2.5 -35.16,16.41 -1.01,12.38 -1.8,25.2 -2.33,38.07 -1.74,34.18 -9.65,159.57 -7.57,189.02 2.67,37.81 23.26,28.63 47.83,28.63 11.46,0 28.21,2.08 38.66,0.74l0.01 0.07zm-77 -202.71c1.97,-3.72 2.07,-40.86 2.18,-48.42 0.19,-4.2 0.78,-7.93 1.63,-10.33 1.36,-4.66 1.58,-5.42 6.17,-6.89 9.83,-3.13 61.1,-0.74 74.87,-0.68l306.84 0.21c68.19,0.07 136.37,-0.02 204.55,-0.27 33.99,0 66.53,-0.13 100.36,-1.42 10.81,-0.41 64.1,0.13 74.75,2.23 7.59,1.55 13.27,3.84 16.15,9.52l1.04 40.63c-2.36,12.97 -1.35,42.88 -1.53,57.67l-2.61 116.23c-0.34,13.98 2.67,39.03 -13.43,45.38 -15.87,6.25 -192.82,-3.37 -239.7,-2.97l-134.85 0.41c-3.86,-1.55 -196.35,-0.95 -228.81,-1.35 -10.14,-0.13 -70.83,-1.04 -75.69,-0.13 -10.3,1.63 -26.84,-0.06 -37.73,-0.33 -66.48,-1.49 -64.69,24.59 -58,-126.94 0.47,-12.13 1.12,-24.32 1.89,-36.21 0.75,-10.87 2.98,-25.93 1.97,-36.4l-0.06 0.08z" data-name="Path 58"/>
 </g>
</svg>
