<svg id="Layer_x0020_1" xmlns="http://www.w3.org/2000/svg" width="31.291" height="29.931" viewBox="0 0 31.291 29.931">
  <path id="Path_26" data-name="Path 26" d="M11.881,11.571c1.061-.672,1.372-1.123,3.036-1.139a25.988,25.988,0,0,0,4.078-.03c2.4-.382,5.28-.421,7.162.808,2.32,1.514,1.526,3.74,1.643,6.9.18,4.808,2.506,9.9-7.266,9.075-2.543-.216-5.376.092-7.454-1.082-2.347-1.326-1.988-3.381-1.682-6.6a56.784,56.784,0,0,0,.483-7.931Zm11.091,20.9a9.053,9.053,0,0,1,2.094-.863c.785-.327,1.48-.762,2.17-1.031.6-.654,4.578-2.37,6.382-6.8,2.479-6.092-2.069-12.221-6.4-15.723a6.394,6.394,0,0,0-1.88-1.344,13.678,13.678,0,0,0-5.657-1.139C11.29,5.741,2.335,13.925,6.3,23.644a15.132,15.132,0,0,0,10.757,9.1c3.321.605,4.433-.262,5.917-.276Z" transform="translate(-4.105 -4.286)" fill="#fff" fill-rule="evenodd"/>
  <path id="Path_27" data-name="Path 27" d="M18.869,28.189c-1.482.012-2.6.881-5.917.276a15.127,15.127,0,0,1-10.757-9.1C-1.771,9.646,7.184,1.462,15.575,1.29a13.657,13.657,0,0,1,5.657,1.139,6.323,6.323,0,0,1,1.88,1.344c4.334,3.5,8.879,9.632,6.4,15.723-1.8,4.43-5.784,6.147-6.382,6.8-.688.272-1.385.7-2.17,1.031a8.856,8.856,0,0,0-2.094.863Zm5.85-1.5A14.777,14.777,0,0,0,28.4,23.432a13.152,13.152,0,0,0,2.479-4.663A13.063,13.063,0,0,0,28.539,7.717,17.957,17.957,0,0,0,23.1,2.664L20.906,1.218C17.667-.7,12.754-.135,9.357,1.448-2.8,7.117-2.65,20.751,7.157,27.425c3.406,2.32,6.55,3.045,11.376,2.122a17.391,17.391,0,0,0,6.1-2.782.74.74,0,0,0,.085-.074Z" transform="translate(-0.002 -0.004)" fill="#020202" fill-rule="evenodd"/>
  <path id="Path_28" data-name="Path 28" d="M38.109,32.245a8.209,8.209,0,0,1,2.617.849c.838.516,1.132,1.705.115,2.163C38.859,36.151,36.988,33.815,38.109,32.245Zm8.713.2c.18,7.544-.764,8.508-6.064,8.278-1.576-.069-3.174.074-4.764.03-3.816-.108-4.336-1.367-4.495-5.024-.136-3.132,2.587-3.942,5.567-3.708-.129.375-.589.522-.725,1.358-.582,3.56,4.23,4.964,6.032,2.7.953-1.2.456-2.2-.055-3.326a12.4,12.4,0,0,0,2.359.405c1.162-.007,1.33-.407,2.145-.713Zm-15-4.98a7.092,7.092,0,0,1,4.435-.52c5.572.72,10.458-.578,10.552,5.176-2.865.916-6.338-.6-8.007-.7a19.65,19.65,0,0,0-4.354.214,5.247,5.247,0,0,0-2.927,1.581l.3-5.756Zm-.405-.518a56.784,56.784,0,0,1-.483,7.931c-.306,3.222-.665,5.277,1.682,6.6,2.078,1.174,4.911.865,7.454,1.082,9.772.831,7.443-4.267,7.266-9.075-.117-3.164.677-5.392-1.643-6.9-1.883-1.227-4.764-1.19-7.162-.808a25.442,25.442,0,0,1-4.078.03,4.384,4.384,0,0,0-3.036,1.139Z" transform="translate(-23.645 -19.66)" fill="#020202" fill-rule="evenodd"/>
  <path id="Path_29" data-name="Path 29" d="M49.437,53.989c-.812.3-.983.707-2.145.713a12.2,12.2,0,0,1-2.359-.405c.511,1.128,1.01,2.129.055,3.326-1.8,2.262-6.614.858-6.032-2.7.136-.835.6-.983.725-1.358-2.983-.235-5.7.575-5.567,3.708.157,3.657.679,4.916,4.495,5.024,1.59.044,3.19-.1,4.764-.03,5.3.232,6.244-.732,6.064-8.278Z" transform="translate(-26.259 -41.208)" fill="#fff" fill-rule="evenodd"/>
  <path id="Path_30" data-name="Path 30" d="M45.489,33.355a2.41,2.41,0,0,1,2.209.074,1.04,1.04,0,0,1,.127,1.719C46.622,36.335,44.27,34.294,45.489,33.355ZM34.541,31.774l-.3,5.756a5.253,5.253,0,0,1,2.927-1.581,19.513,19.513,0,0,1,4.354-.214c1.669.1,5.141,1.611,8.007.7-.094-5.754-4.98-4.458-10.552-5.176A7.094,7.094,0,0,0,34.541,31.774Z" transform="translate(-26.36 -23.97)" fill="#fff" fill-rule="evenodd"/>
  <path id="Path_31" data-name="Path 31" d="M61.727,54.69c-1.118,1.57.753,3.906,2.732,3.013,1.017-.458.723-1.648-.115-2.163A8.325,8.325,0,0,0,61.727,54.69Z" transform="translate(-47.262 -42.104)" fill="#fff" fill-rule="evenodd"/>
  <path id="Path_32" data-name="Path 32" d="M82.408,40.548a8.737,8.737,0,0,1,.849.315c.614.249.389.053.49.479-.7.338-1.194-.15-1.337-.794Zm-.419-.564c-1.22.941,1.132,2.983,2.336,1.793a1.04,1.04,0,0,0-.127-1.719A2.4,2.4,0,0,0,81.989,39.984Z" transform="translate(-62.858 -30.6)" fill="#020202" fill-rule="evenodd"/>
  <path id="Path_33" data-name="Path 33" d="M85.789,43.545a8.522,8.522,0,0,0-.849-.315c.143.644.633,1.132,1.337.794-.1-.426.124-.228-.49-.479Z" transform="translate(-65.392 -33.282)" fill="#d6ecf4" fill-rule="evenodd"/>
</svg>
