<svg id="Layer_x0020_1" xmlns="http://www.w3.org/2000/svg" width="31.495" height="31.028" viewBox="0 0 31.495 31.028">
  <path id="Path_34" data-name="Path 34" d="M22.8,23.323c0,1.324.282,3.336-.267,4.409-.584,1.142-2.3,1.1-3.475.559-1.2-.555-.849-2.128-.959-3.647-.134-1.81-.3-2.987-.3-4.921,0-1.232.177-2.512.9-3.13.608.038.351.164.851.195.265.015.822-.1,1.16-.134,1.409-.118,1.188.179,2.018.456,1.289-.774,2.014-1.264,3.971-.635a4.624,4.624,0,0,1,2.683,2.348c1.23,2.062,2.226,5.481,1.064,8.045-1.362,3.006-4.591,2.794-4.781-1.127-.063-1.324.141-3.6-.656-4.413a1.446,1.446,0,0,0-1.779-.238c-.5.423-.433,1.537-.433,2.229ZM12.155,17.712c-.069-1.163,2.088-.755,2.685-.313a3.244,3.244,0,0,1,1.108,2.756c.082,1.814.414,6.04.137,7.6-.21,1.19-3.706,1.539-3.532-2.706a66.924,66.924,0,0,0-.4-7.339Zm-.166-3.742c-.109-.879.38-1.007.687-1.413.408-.54.343-.858,1.272-.957,3.092-.332,3.854,4,.725,4.135C13.448,15.788,12.107,14.924,11.989,13.97ZM19.24,6.988A14.767,14.767,0,0,0,13.9,8.735,15.2,15.2,0,0,0,9.864,11.9c-2.23,2.058-3.492,7-3.326,10.993A11.388,11.388,0,0,0,11.646,32.1a19.453,19.453,0,0,0,11.226,3.212c4.152-.143,8.233-2.086,10.041-4.251,2.327-2.786,2.63-7.3,2.434-11.775-.217-4.938-1.818-7.388-4.814-9.383A17.282,17.282,0,0,0,19.238,6.988Z" transform="translate(-5.281 -5.564)" fill="#fff" fill-rule="evenodd"/>
  <path id="Path_35" data-name="Path 35" d="M13.968,1.437A17.27,17.27,0,0,1,25.262,4.355c3,1.995,4.6,4.446,4.814,9.383.2,4.47-.107,8.99-2.434,11.775-1.808,2.165-5.888,4.108-10.041,4.251A19.453,19.453,0,0,1,6.376,26.553a11.388,11.388,0,0,1-5.107-9.212c-.166-4,1.1-8.935,3.326-10.993A15.2,15.2,0,0,1,8.626,3.184,14.719,14.719,0,0,1,13.97,1.437ZM29.8,24.833l.147-.172a12.118,12.118,0,0,0,1.325-4.722c.315-.87.25-5.832.135-7.022a12.973,12.973,0,0,0-1.676-5.693c-1.461-2.346-5.264-5-8.64-6.177C14.739-1.168,9.036.228,4.575,4.746A15.64,15.64,0,0,0,1.331,8.992,17.676,17.676,0,0,0,1.009,21.57c2.624,7.135,12.4,10.659,19.862,9.113a16.171,16.171,0,0,0,5.241-2.092c1.051-.669,3.351-2.62,3.69-3.755Z" transform="translate(-0.009 -0.013)" fill="#020202" fill-rule="evenodd"/>
  <path id="Path_36" data-name="Path 36" d="M67.275,57.069c2.4-.05,1.732.353,2.184,1.038.5.761,1.684.006,2.065-.338a3,3,0,0,1,4.331.263c1.058,1.219,1.69,6.086,1.207,7.86-.265.973-.587,1.442-1.777,1.3-1.591-2,.305-5.567-1.062-7.518a2.839,2.839,0,0,0-3.408-.591c-2.083,1.274-.511,6.191-1.3,7.48-.288.469-1.312.559-1.518-.1-.074-.237-.139-1.573-.2-1.976-.3-1.98-1.781-5.613-.523-7.413Zm3.38,5.8c0-.694-.065-1.806.433-2.23a1.446,1.446,0,0,1,1.779.238c.8.816.591,3.088.656,4.413.189,3.921,3.418,4.133,4.781,1.127,1.161-2.563.166-5.983-1.064-8.045a4.624,4.624,0,0,0-2.683-2.348c-1.957-.629-2.682-.139-3.971.635-.832-.277-.61-.574-2.018-.456-.338.029-.894.149-1.16.134-.5-.029-.242-.156-.851-.195-.721.616-.9,1.9-.9,3.13,0,1.934.164,3.111.3,4.921.111,1.518-.246,3.092.959,3.647,1.171.54,2.889.584,3.475-.559.549-1.074.267-3.086.267-4.409Z" transform="translate(-53.139 -45.113)" fill="#020202" fill-rule="evenodd"/>
  <path id="Path_37" data-name="Path 37" d="M72.011,62.259c-1.259,1.8.223,5.432.523,7.413.061.4.126,1.741.2,1.976.208.66,1.232.57,1.518.1.79-1.289-.784-6.206,1.3-7.48a2.842,2.842,0,0,1,3.408.591c1.367,1.951-.528,5.516,1.062,7.518,1.192.143,1.512-.324,1.778-1.3.483-1.774-.149-6.641-1.207-7.86a3,3,0,0,0-4.331-.263c-.381.343-1.562,1.1-2.065.338-.452-.685.212-1.087-2.184-1.038Z" transform="translate(-57.875 -50.303)" fill="#fff" fill-rule="evenodd"/>
  <path id="Path_38" data-name="Path 38" d="M36.959,60.649c2.159.441,1.688,1.165,1.837,3.971a26.849,26.849,0,0,1,.08,5.508c-2.012-.143-1.247-1.985-1.341-4.326C37.464,64,37.113,62.331,36.959,60.649Zm-.517,7.169c-.175,4.245,3.32,3.9,3.532,2.706.277-1.562-.057-5.788-.137-7.6a3.242,3.242,0,0,0-1.108-2.756c-.6-.442-2.754-.851-2.685.313a67.4,67.4,0,0,1,.4,7.339Z" transform="translate(-29.17 -48.333)" fill="#020202" fill-rule="evenodd"/>
  <path id="Path_39" data-name="Path 39" d="M42.677,68.561c-.149-2.805.322-3.53-1.837-3.971.154,1.682.5,3.347.576,5.153.092,2.34-.671,4.182,1.341,4.325A26.845,26.845,0,0,0,42.677,68.561Z" transform="translate(-33.053 -52.274)" fill="#fff" fill-rule="evenodd"/>
  <path id="Path_40" data-name="Path 40" d="M36.156,33.811a1.285,1.285,0,0,1,2.422-.2C38.929,34.789,37,35.024,36.156,33.811Zm-1.041.143c.118.954,1.457,1.819,2.683,1.764,3.13-.137,2.367-4.467-.725-4.135-.927.1-.864.418-1.272.957C35.494,32.947,35.006,33.074,35.114,33.954Z" transform="translate(-28.407 -25.547)" fill="#020202" fill-rule="evenodd"/>
  <path id="Path_41" data-name="Path 41" d="M40.64,39.237c.841,1.211,2.773.978,2.422-.2A1.285,1.285,0,0,0,40.64,39.237Z" transform="translate(-32.891 -30.974)" fill="#fff" fill-rule="evenodd"/>
</svg>
