<svg xmlns="http://www.w3.org/2000/svg" width="3.379" height="520.138" viewBox="0 0 3.379 520.138">
  <g id="Layer_x0020_1" transform="translate(3.379) rotate(90)">
    <path id="Path_57" data-name="Path 57" d="M0,.985l63.124.953c21.545.409,42.919.4,64.259.046,43.649-.727,87.059.629,130.618.606,21.825-.011,43.309.235,65.289.135,22-.1,44.264-.064,66.279.021,26.685.1,110.674,1.8,130.568-.816-2.66-1.486-8.41-.841-13.875-.766-42.5.578-71.674.4-114.713.2-65.294-.293-130.6.448-195.872-.409C173.533.665,152.758.4,130.373.63c-21.6.224-42.979.556-64.634.181C44.654.445,21.94-.131.87.027L0,.989Z" transform="translate(0 0)" fill="#020202" fill-rule="evenodd"/>
  </g>
</svg>
