<svg id="alogo_1" data-name="alogo 1" xmlns="http://www.w3.org/2000/svg" xmlns:xlink="http://www.w3.org/1999/xlink" width="62.299" height="44.084" viewBox="0 0 62.299 44.084">
  <defs>
    <linearGradient id="linear-gradient" x1="3.735" y1="0.322" x2="4.594" y2="1.007" gradientUnits="objectBoundingBox">
      <stop offset="0" stop-color="#565656"/>
      <stop offset="0.49" stop-color="#1fa7df"/>
      <stop offset="1" stop-color="#243e8c"/>
    </linearGradient>
    <linearGradient id="linear-gradient-3" x1="3.735" y1="0.322" x2="4.594" y2="1.007" gradientUnits="objectBoundingBox">
      <stop offset="0"/>
      <stop offset="0.49" stop-color="#1fa7df"/>
      <stop offset="1" stop-color="#243e8c"/>
    </linearGradient>
  </defs>
  <path id="Path_4" data-name="Path 4" d="M112.3,85.75l12.862,17.159a3.867,3.867,0,0,1-3.092,6.191H94.81Z" transform="translate(-63.639 -65.016)" fill="url(#linear-gradient)"/>
  <path id="Path_5" data-name="Path 5" d="M90.973,58.391,105.392,77.61H70.37L84.789,58.391a3.867,3.867,0,0,1,6.184,0Z" transform="translate(-56.731 -56.847)" fill="url(#linear-gradient)"/>
  <path id="Path_6" data-name="Path 6" d="M100.018,85.75l-27.4,22.518a3.637,3.637,0,0,1-2.31.832H55.226a3.874,3.874,0,0,1-3.1-6.191l6.356-8.465Z" transform="translate(-51.357 -65.016)" fill="url(#linear-gradient-3)"/>
</svg>
