<?xml version="1.0" encoding="UTF-8"?>
<!DOCTYPE svg PUBLIC "-//W3C//DTD SVG 1.1//EN" "http://www.w3.org/Graphics/SVG/1.1/DTD/svg11.dtd">
<!-- Creator: CorelDRAW 2019 (64-Bit) -->
<svg xmlns="http://www.w3.org/2000/svg" xml:space="preserve" width="1.47242in" height="2.26859in" version="1.1" style="shape-rendering:geometricPrecision; text-rendering:geometricPrecision; image-rendering:optimizeQuality; fill-rule:evenodd; clip-rule:evenodd"
viewBox="0 0 996.93 1536"
 xmlns:xlink="http://www.w3.org/1999/xlink"
 xmlns:xodm="http://www.corel.com/coreldraw/odm/2003">
 <defs>
  <style type="text/css">
   <![CDATA[
    .fil0 {fill:#040404}
   ]]>
  </style>
 </defs>
 <g id="Layer_x0020_1">
  <metadata id="CorelCorpID_0Corel-Layer"/>
  <g id="_2295621850128">
   <path class="fil0" d="M687.88 898.81c14.58,4.12 30.01,23.51 39.09,33.32 -5.41,19.29 -24.05,24.79 -27.16,34.93 13.86,7.69 25.2,-19.9 34.84,-26.19 5.64,14.03 -4.9,4.54 -6.89,20.12 10.16,0.38 8.83,-2.8 14.39,-8 41.51,63.46 74.84,149.37 107.03,222.81 9.39,21.43 28.29,57.61 34.05,78.1 -3.48,4.6 -8.62,8.52 -14.7,12.22 -9.72,5.91 -12.37,3.24 -11.44,13.25 15.15,2.04 21.1,-13.6 31.21,-16.18 2.09,12.82 -14.24,26.3 -22.3,33.22 -18.63,16.02 -26.4,7.6 -42.04,14.31 1.44,3.73 -3.08,3.55 6.6,5.65 3.64,0.79 9.56,-0.03 13.23,-0.81 7.35,-1.55 14.32,-4.82 19.93,-8.34 17.29,-10.82 21.16,-21.35 29.76,-29.26 7.51,8.9 11.57,24.86 17.06,35.31 5.45,10.36 24.44,41.56 27.6,53.22 8.23,30.4 10.76,24.64 27.01,56.08 12.23,23.67 35.86,45.04 11.47,74 -22.66,26.91 -63.91,28 -73.86,5.12 13.4,-0.93 28.87,-5.98 38.11,-14.89 1.12,-1.08 3.08,-3.13 3.49,-4.73 5.41,-21.41 -28.32,28.06 -53.13,7.84 3.26,-8.12 3.81,-0.87 9.72,-8.74l-9.28 -2.37c-1.44,0.02 -6.47,1.42 -9.11,1.84 -37.27,-38.18 -176.33,-318.6 -212.43,-390.31 -23.76,-47.22 -49.03,-93.17 -45.67,-158.46 13.21,7.96 23.69,23.36 50.96,14.38 21.43,-7.06 15.59,-27.86 12.47,-47.46zm-100.39 -73.27c6.56,-3.98 27.84,-12.69 34.98,-12.95 5.25,8.9 83.54,114.89 45.92,122.84 -28.92,6.1 -42.65,-23.51 -52.27,-42.28 -5.76,-11.24 -26.75,-57.62 -28.63,-67.6zm-176.49 -807.1c140.38,-11.42 222.68,48.37 291.65,112.8 16.83,15.72 33.28,34.96 48.96,53.77 12.23,14.66 37.47,54.81 42.13,58.31 10.29,7.71 7.31,-0.71 13.36,12.93l13.87 38.67c4.52,7.28 7.89,1.56 9.13,14.65 4.99,52.6 -0.46,139.41 -14.7,188.82 -7.91,27.45 -16.63,50.62 -23.44,79.29 -8.61,36.2 -13.02,46.69 -31.89,70.76 -15.08,19.23 -25.86,37.25 -40.95,59.58 -57.71,85.38 -175.86,123.37 -282.41,124.93 -133.76,1.95 -228.49,-52.07 -293.56,-115.93 -73.05,-71.69 -128.37,-165.54 -128.12,-278.29 0.25,-110.65 57.87,-239.54 112.39,-296.16 49.05,-50.93 61.86,-52.19 118.88,-84.37 44.22,-24.95 105.94,-34.96 164.7,-39.74zm225.62 783.76c21.03,-9.03 47.12,-27.7 62.65,-41.93 32.74,-29.97 43.05,-56.44 66.76,-88.43 37.83,-51.04 29.41,-34.11 48.98,-106.29 23.79,-87.74 36.29,-79.87 29.73,-172.65 -0.73,-10.26 2.78,-49.2 2.63,-49.74 -3.33,-11.3 -5.4,1.97 -7.9,-18.85 -0.88,-7.36 -1.75,-13.89 -3.39,-20.73 -5.5,-22.94 -20.28,-53.05 -31.15,-71.31 -13.39,-22.5 -28.95,-44.68 -43.59,-61.38 -17.26,-19.67 -31.52,-37.03 -49.14,-53.56 -81.3,-76.25 -173.25,-126.38 -295.16,-115.99 -156.4,13.33 -170.42,52.46 -233.25,77.05 -55.44,21.69 -115.42,111 -140.33,170.34 -45.21,107.71 -64.07,223.59 -12.44,337.83 40,88.51 118.29,174.57 198.99,216.11 78.09,40.21 170.77,56.67 261.33,44.72 42.68,-5.63 63.22,-14.7 86.65,-18.4l27.36 68.34c2.72,5.45 8.95,14.89 11.03,19.82 6.56,15.54 -20.06,18.14 9.34,104.23 21.23,62.16 52.57,114.36 79.02,172.07 34.62,75.54 131.23,270.87 182.17,322.65 45.29,46.03 148.92,10.59 94.68,-90.22 -14.6,-27.14 -26.79,-59.06 -39.99,-86.83 -47.14,-99.18 -130.75,-309.35 -180.59,-385.46 -11.61,-17.72 -21.55,-25.28 -22.03,-38.98 -12.08,0.12 -18.7,-10.55 -28.14,-17.94 -12.17,-9.51 -12.46,-11.86 -28.81,-9.89 -8.21,-28.3 -41.24,-62.82 -45.43,-84.59z"/>
   <path class="fil0" d="M403 60.53c59.91,-5.78 107.56,-1.24 156.98,21.01 61.01,27.48 114.53,73 153.96,121.43 20.48,25.15 28.71,42 38.01,53.8 10.77,13.65 11.88,2.13 20.61,25.17l9.04 26.11c5.44,9.28 -0.46,-1.33 5.22,5.58 10.71,13.03 1.37,140.45 -7.27,168.53 -7.21,23.42 -15.12,46.31 -21.39,70.14 -19.69,74.87 -22.25,56.62 -63.44,120.44 -24.57,38.08 -52.58,63.06 -99.1,84.42 -147.59,67.77 -310.32,36.6 -417.04,-62.51 -52.82,-49.05 -118.15,-133.74 -122,-244.94 -3.55,-102.72 46.59,-215.47 95.19,-271.93 42.03,-48.84 55.44,-49.26 105.41,-78.15 42.78,-24.73 88.52,-33.59 145.81,-39.12zm401.59 301.69c3.63,-15.46 1.61,-7.98 -3.36,-17.11 -3.33,-6.12 -2.87,-12.08 -4.11,-19.78 -10.75,-66.93 -89.25,-160.04 -136.92,-197.56 -81.33,-64 -151.98,-101.21 -290.94,-77.38 -63.77,10.93 -92.55,25.74 -139.11,52.83 -20.46,11.9 -33.51,10.78 -60.12,36.07 -81.4,77.36 -142.6,215.34 -124.08,346.82 14.98,106.42 88.62,193.12 143.62,239.07 114.47,95.65 302.16,114.09 441.2,32.11 47.7,-28.13 63.63,-50.99 92.91,-97.21 12.72,-20.07 28.94,-33.34 38.4,-57.74 8.58,-22.12 13.91,-50.6 21.22,-74.93 7.74,-25.79 16.64,-46.74 20.88,-74.99 4.68,-31.16 -6.27,-61.75 0.4,-90.2z"/>
   <path class="fil0" d="M117.63 353.32c3.56,-2.64 7.47,-30.19 15.99,-51.59 14.71,-36.96 35.85,-78.18 67.92,-100.41 33.21,-23.01 -12.46,-45.15 -62.46,46.88 -7.44,13.69 -15.1,31.03 -19.59,48.1 -2.72,10.35 -12.37,49.82 -1.86,57.02z"/>
   <path class="fil0" d="M108.62 373.48c-4.98,4.55 -10.51,9.11 -7.61,18.17 1.62,5.06 8.94,13.66 15.88,11.76 7.57,-2.06 21.02,-30.7 -8.28,-29.94z"/>
  </g>
 </g>
</svg>
