<svg xmlns="http://www.w3.org/2000/svg" width="291.702" height="2.024" viewBox="0 0 291.702 2.024">
  <g id="Layer_x0020_1" transform="translate(291.702 2.024) rotate(180)">
    <path id="Path_57" data-name="Path 57" d="M0,.59l35.4.571c12.083.245,24.07.24,36.038.027,24.479-.436,48.824.377,73.253.363,12.24-.007,24.289.141,36.615.081s24.824-.038,37.17.012c14.965.06,62.067,1.077,73.225-.489-1.492-.89-4.716-.5-7.781-.459-23.834.347-40.2.237-64.333.121-36.618-.175-73.242.268-109.848-.245C97.32.4,85.669.238,73.115.378,61,.512,49.012.71,36.868.486,25.043.267,12.3-.078.488.016L0,.593Z" transform="translate(0 0)" fill="#020202" fill-rule="evenodd"/>
  </g>
</svg>
